<?xml version="1.0" encoding="utf-8"?><svg viewBox="0 0 30 30" xmlns="http://www.w3.org/2000/svg" xmlns:xlink="http://www.w3.org/1999/xlink"><style>:root>svg{display:none}:root>svg:target{display:block}</style><svg fill="none" viewBox="0 0 30 30" id="arrow" xmlns="http://www.w3.org/2000/svg"><path fill-rule="evenodd" clip-rule="evenodd" d="M10.837 22.81a.75.75 0 0 0 1.061 0l7.264-7.264a.747.747 0 0 0 .219-.489.75.75 0 0 0-.215-.616l-7.264-7.264a.75.75 0 1 0-1.06 1.06l6.753 6.755-6.758 6.758a.75.75 0 0 0 0 1.06Z" fill="#D9D9D9" fill-opacity=".4"/></svg><svg fill="none" viewBox="0 0 24 24" id="close" xmlns="http://www.w3.org/2000/svg"><path fill-rule="evenodd" clip-rule="evenodd" d="M6.47 16.47a.75.75 0 1 0 1.06 1.06L12 13.06l4.47 4.47a.75.75 0 1 0 1.06-1.06L13.06 12l4.47-4.47a.75.75 0 0 0-1.06-1.06L12 10.94 7.53 6.47a.75.75 0 0 0-1.06 1.06L10.94 12l-4.47 4.47Z" fill="#fff" fill-opacity=".3"/></svg></svg>